<svg xmlns="http://www.w3.org/2000/svg" width="326.716" height="608.844" stroke="#9500FF" stroke-width="12" fill="#1B1B1B" viewBox="0 0 326.716 608.844">
  <defs>
    <filter id="blur" x="0" y="0" xmlns="http://www.w3.org/2000/svg">
      <feGaussianBlur in="SourceGraphic" stdDeviation="12" />
    </filter>
  </defs>
  <path d="M132.37-450.317A115.955,115.955,0,0,0,41.694-388.18c-8.587,17.639-8.469,16.454-8.726,83.65l-.208,61.456-4.091,4.5a46.865,46.865,0,0,1-11.245,8.1A22.64,22.64,0,0,0,3.461-204.515c1.631,6.542,13.558,2.964,22.274-6.611a18.773,18.773,0,0,1,5.86-4.941c.988,0,1.364,49.192,1.225,148.229L32.682,80.39l2.965,8.785c14.922,44.469,57.157,65.883,130.125,65.883,72.079,0,114.521-21.118,129.581-64.45l3.478-10.01L298.693-67.72c-.138-99.195.277-148.386,1.225-148.386a18.778,18.778,0,0,1,5.86,4.941c7.7,8.518,20.031,12.945,22.007,7.905a23.233,23.233,0,0,0-15.06-28.006,38.536,38.536,0,0,1-9.882-7.361l-4.219-4.635-.069-56.208c0-75.7-1.364-82.711-20.169-107.505C251.793-442.007,193.2-459.379,132.37-450.317Z" transform="translate(-2.403 453.286)"/>
  <path  filter="url(#blur)" d="M132.37-450.317A115.955,115.955,0,0,0,41.694-388.18c-8.587,17.639-8.469,16.454-8.726,83.65l-.208,61.456-4.091,4.5a46.865,46.865,0,0,1-11.245,8.1A22.64,22.64,0,0,0,3.461-204.515c1.631,6.542,13.558,2.964,22.274-6.611a18.773,18.773,0,0,1,5.86-4.941c.988,0,1.364,49.192,1.225,148.229L32.682,80.39l2.965,8.785c14.922,44.469,57.157,65.883,130.125,65.883,72.079,0,114.521-21.118,129.581-64.45l3.478-10.01L298.693-67.72c-.138-99.195.277-148.386,1.225-148.386a18.778,18.778,0,0,1,5.86,4.941c7.7,8.518,20.031,12.945,22.007,7.905a23.233,23.233,0,0,0-15.06-28.006,38.536,38.536,0,0,1-9.882-7.361l-4.219-4.635-.069-56.208c0-75.7-1.364-82.711-20.169-107.505C251.793-442.007,193.2-459.379,132.37-450.317Z" transform="translate(-2.403 453.286)"/>
</svg>
