<svg xmlns="http://www.w3.org/2000/svg" viewBox="0 0 56 55.822" stroke="#66FF66" stroke-width="2">
  <defs>
    <filter id="blur" x="0" y="0" xmlns="http://www.w3.org/2000/svg">
      <feGaussianBlur in="SourceGraphic" stdDeviation="2" />
    </filter>
  </defs>
  <path d="M28.549.5C27.724.383 24.22 8 24.464 9.131s3.382 3.066 3.382 3.066l-4.057.7v6.358l-5.231-4.333-2.146 4.333-3.79-3.155s1.953-2.945.532-4.245-5.815-3.068-6.216-.93.591 5.2 4.612 9.483 10.852 6.618 11.471 7.641-5.194-2.941-9-3.551a9.253 9.253 0 0 0-6.172 1.079c.069-.05-.032-1.093-.043.029s.375 4.364 0 4.457.326-3.981-1.5-4.086-5.807 1.94-5.807 3.668 5.807 3.246 5.807 3.246a43.353 43.353 0 0 0 6.846 1.052c2.287 0 2.3-1.052 2.3-1.052l-5.6 5.735s-4.185 5.039-3.877 6.719 4.152.742 5.123 0-1.24-2.967-1.24-2.967l3.729-2.223v4.254s11.278-9.276 12.2-9.562-8.52 8.416-8.52 8.416-1.48 2.419-.857 3.336 3.35.331 3.35.331l-4.306 1.806s-.224 4.688.956 5.347 3.762-2.71 3.762-2.71-.793-2.342-.413-2.637 1.934 1.457 1.934 1.457 2.659-1.645 2.768-2.76-2.518-1.275-2.333-1.7 1.753 1.547 3.073 0 2.206-6.189 2.206-6.189v3.719l2.749 4.169 4.053-.833-2.467 3.593 5.187 5.131 1.442-6.587-1.054-6.357-5.029-6.315 9.781 8.346 1.542-2.378v3.313l5.25 1.254-2.873-7.972h-5.221l3.8-2.564-7.243-6.417 6.831 5.2 2.939-.416v-3.075l2.663 2.594 5.748-1.052-7.618-6.473-2.786 2.419.333-3.231-3.937-1.114-2.117 1.108 4.233-4.136-1.541-1.585 2.079-3.318 2.939 1.381s4.59-6.1 2.663-7.022-7.964.961-10.371 3.332 1.355 5.69.743 6.152-3.191-4.3-3.191-4.3l-3.11 2.545-5.305 10.183s5.892-8.542 4.578-15.942S29.374.617 28.549.5Z"/>
  <path filter="url(#blur)" d="M28.549.5C27.724.383 24.22 8 24.464 9.131s3.382 3.066 3.382 3.066l-4.057.7v6.358l-5.231-4.333-2.146 4.333-3.79-3.155s1.953-2.945.532-4.245-5.815-3.068-6.216-.93.591 5.2 4.612 9.483 10.852 6.618 11.471 7.641-5.194-2.941-9-3.551a9.253 9.253 0 0 0-6.172 1.079c.069-.05-.032-1.093-.043.029s.375 4.364 0 4.457.326-3.981-1.5-4.086-5.807 1.94-5.807 3.668 5.807 3.246 5.807 3.246a43.353 43.353 0 0 0 6.846 1.052c2.287 0 2.3-1.052 2.3-1.052l-5.6 5.735s-4.185 5.039-3.877 6.719 4.152.742 5.123 0-1.24-2.967-1.24-2.967l3.729-2.223v4.254s11.278-9.276 12.2-9.562-8.52 8.416-8.52 8.416-1.48 2.419-.857 3.336 3.35.331 3.35.331l-4.306 1.806s-.224 4.688.956 5.347 3.762-2.71 3.762-2.71-.793-2.342-.413-2.637 1.934 1.457 1.934 1.457 2.659-1.645 2.768-2.76-2.518-1.275-2.333-1.7 1.753 1.547 3.073 0 2.206-6.189 2.206-6.189v3.719l2.749 4.169 4.053-.833-2.467 3.593 5.187 5.131 1.442-6.587-1.054-6.357-5.029-6.315 9.781 8.346 1.542-2.378v3.313l5.25 1.254-2.873-7.972h-5.221l3.8-2.564-7.243-6.417 6.831 5.2 2.939-.416v-3.075l2.663 2.594 5.748-1.052-7.618-6.473-2.786 2.419.333-3.231-3.937-1.114-2.117 1.108 4.233-4.136-1.541-1.585 2.079-3.318 2.939 1.381s4.59-6.1 2.663-7.022-7.964.961-10.371 3.332 1.355 5.69.743 6.152-3.191-4.3-3.191-4.3l-3.11 2.545-5.305 10.183s5.892-8.542 4.578-15.942S29.374.617 28.549.5Z"/>
</svg>
