<svg xmlns="http://www.w3.org/2000/svg" viewBox="0 0 56 56.108" stroke="#66FF66" stroke-width="2">
<defs>
  <filter id="blur" x="0" y="0" xmlns="http://www.w3.org/2000/svg">
    <feGaussianBlur in="SourceGraphic" stdDeviation="4" />
  </filter>
</defs>
<path d="M28.024.5a12.577 12.577 0 0 0-3.734 5.386 37.661 37.661 0 0 0-1.637 9.035 27.858 27.858 0 0 0-6.859-4.936 18.257 18.257 0 0 0-7.27-1.476s.207 6.711 4.354 11.278 12.236 6.991 12.236 6.991-8.187-4.173-14.341-3.857S.5 28.043.5 28.043a18.556 18.556 0 0 0 8.964 4.6c5.217.879 11.9-1.088 11.9-1.088s-6.635 1.963-9.846 5.883-3 9.794-3 9.794 6.224.632 10.639-3.016 7.021-11.573 7.021-11.573.553.983-1.494 4.795-1.756 5.545-1.615 7.308c.461 5.74 4.949 10.859 4.949 10.859a19.577 19.577 0 0 0 4.795-9.7c.733-5.473-1.863-12.2-1.863-12.2s2.229 7.124 6.341 10.5 10.105 3.016 10.105 3.016a24.193 24.193 0 0 0-2.022-8.027c-1.862-4.125-8.083-5.492-16.083-10.316 0 0 6.98 4.85 14.712 4.372a16.411 16.411 0 0 0 11.491-5.221 13.737 13.737 0 0 0-8.724-4.687c-5.523-.584-13.371 2.351-13.371 2.351a19.3 19.3 0 0 0 10.6-7.318c4.31-5.989 3.394-9.88 3.394-9.88s-4.449-.861-10.105 3.541-8 12.5-8 12.5 3.841-7.632 3.522-13.646S28.024.5 28.024.5Z"/>
<path filter="url(#blur)" d="M28.024.5a12.577 12.577 0 0 0-3.734 5.386 37.661 37.661 0 0 0-1.637 9.035 27.858 27.858 0 0 0-6.859-4.936 18.257 18.257 0 0 0-7.27-1.476s.207 6.711 4.354 11.278 12.236 6.991 12.236 6.991-8.187-4.173-14.341-3.857S.5 28.043.5 28.043a18.556 18.556 0 0 0 8.964 4.6c5.217.879 11.9-1.088 11.9-1.088s-6.635 1.963-9.846 5.883-3 9.794-3 9.794 6.224.632 10.639-3.016 7.021-11.573 7.021-11.573.553.983-1.494 4.795-1.756 5.545-1.615 7.308c.461 5.74 4.949 10.859 4.949 10.859a19.577 19.577 0 0 0 4.795-9.7c.733-5.473-1.863-12.2-1.863-12.2s2.229 7.124 6.341 10.5 10.105 3.016 10.105 3.016a24.193 24.193 0 0 0-2.022-8.027c-1.862-4.125-8.083-5.492-16.083-10.316 0 0 6.98 4.85 14.712 4.372a16.411 16.411 0 0 0 11.491-5.221 13.737 13.737 0 0 0-8.724-4.687c-5.523-.584-13.371 2.351-13.371 2.351a19.3 19.3 0 0 0 10.6-7.318c4.31-5.989 3.394-9.88 3.394-9.88s-4.449-.861-10.105 3.541-8 12.5-8 12.5 3.841-7.632 3.522-13.646S28.024.5 28.024.5Z"/>
</svg>